<svg width="122" height="37" viewBox="0 0 122 37" fill="none" xmlns="http://www.w3.org/2000/svg">
<path d="M20.5119 1.99645C20.881 1.90419 21.1424 1.87344 21.2961 1.90419C21.4499 1.90419 21.6037 1.91957 21.7574 1.95032C21.942 2.07334 22.0957 2.22711 22.2188 2.41163C22.2188 3.05747 22.2034 3.7033 22.1726 4.34913C22.1726 4.96421 22.1726 5.59467 22.1726 6.2405C22.1726 7.40915 22.188 8.5778 22.2188 9.74646C22.2495 10.9151 22.2495 12.0838 22.2188 13.2524C22.2803 13.5292 22.2956 13.683 22.2649 13.7137C22.2341 13.7445 22.2188 13.7906 22.2188 13.8521C22.2188 15.0208 22.2495 16.174 22.311 17.3119C22.3725 18.4498 22.4033 19.6031 22.4033 20.7718V26.9072C22.4033 28.2296 22.434 29.5366 22.4955 30.8283C22.5878 32.12 22.6339 33.4116 22.6339 34.7033C22.6339 34.8263 22.557 34.9955 22.4033 35.2107C22.3418 35.4568 22.2495 35.6567 22.1265 35.8104C21.8497 35.8412 21.5883 35.7951 21.3423 35.6721C21.2192 35.6721 21.127 35.7182 21.0655 35.8104C21.0347 35.872 20.9732 35.9335 20.881 35.995C20.6349 35.995 20.435 36.0565 20.2813 36.1795C20.1275 36.3025 19.943 36.364 19.7277 36.364C19.5432 36.364 19.3586 36.3333 19.1741 36.2718C19.0203 36.241 18.8358 36.2256 18.6205 36.2256C18.559 36.2256 18.4668 36.2718 18.3438 36.364C18.2207 36.487 18.1285 36.5639 18.067 36.5947C17.9132 36.5947 17.7748 36.61 17.6518 36.6408C17.5288 36.7023 17.3904 36.7331 17.2366 36.7331C17.0828 36.61 17.006 36.4255 17.006 36.1795C17.0367 35.9335 16.9444 35.7797 16.7292 35.7182C16.7292 35.5644 16.7292 35.3953 16.7292 35.2107C16.7599 35.0262 16.7753 34.8417 16.7753 34.6572C16.7753 33.4578 16.7445 32.2584 16.683 31.059C16.6215 29.8288 16.5754 28.614 16.5446 27.4146C16.5139 26.8918 16.4985 26.3844 16.4985 25.8923C16.5293 25.3695 16.5446 24.8467 16.5446 24.3238C16.5446 24.0471 16.5446 23.7703 16.5446 23.4935C16.5446 23.2167 16.5139 22.9553 16.4524 22.7093C16.2679 22.6785 16.0987 22.7093 15.9449 22.8015C15.8219 22.863 15.6835 22.8938 15.5298 22.8938C14.8839 23.1091 14.4534 23.3243 14.2381 23.5396C14.0536 23.5396 13.8998 23.5704 13.7768 23.6319C13.6538 23.6934 13.5154 23.7549 13.3616 23.8164C13.1156 23.8779 12.8695 23.9394 12.6235 24.0009C12.4082 24.0317 12.1776 24.0932 11.9315 24.1854C11.7778 24.247 11.624 24.3085 11.4702 24.37C11.3165 24.4315 11.1627 24.493 11.0089 24.5545C10.6706 24.6775 10.3323 24.8005 9.99405 24.9235C9.65575 25.0158 9.31746 25.1234 8.97917 25.2465C8.64087 25.308 8.34871 25.4002 8.10268 25.5232C7.85665 25.6463 7.61062 25.7693 7.36458 25.8923C7.14931 27.3377 7.02629 28.7217 6.99554 30.0441C6.99554 31.3357 7.04167 32.6274 7.13393 33.9191C7.07242 34.1036 7.04167 34.3189 7.04167 34.5649C7.04167 34.7802 6.99554 34.9647 6.90327 35.1185C6.56498 35.2107 6.33433 35.2261 6.21131 35.1646C6.11905 35.0723 6.01141 34.9955 5.88839 34.934C5.76538 34.9647 5.65774 35.0262 5.56548 35.1185C5.50397 35.2107 5.44246 35.2876 5.38095 35.3491C5.13492 35.3491 4.93502 35.4106 4.78125 35.5337C4.65823 35.6259 4.53522 35.7028 4.4122 35.7643C4.31994 35.7951 4.22768 35.7951 4.13542 35.7643C4.04316 35.7336 3.93552 35.7489 3.8125 35.8104C3.50496 35.8104 3.35119 35.7797 3.35119 35.7182C3.38194 35.6259 3.35119 35.5798 3.25893 35.5798C3.13591 35.5798 3.04365 35.6413 2.98214 35.7643C2.95139 35.8566 2.8745 35.9335 2.75149 35.995C2.62847 36.0565 2.49008 36.1026 2.33631 36.1334C2.18254 36.1334 2.02877 36.1641 1.875 36.2256C1.72123 36.0719 1.64435 35.9027 1.64435 35.7182C1.64435 35.5337 1.56746 35.3645 1.41369 35.2107C1.35218 34.7802 1.30605 34.365 1.2753 33.9652C1.2753 33.5347 1.22917 33.1041 1.1369 32.6735C1.19841 31.8124 1.21379 31.1205 1.18304 30.5976C1.18304 30.0748 1.18304 29.5366 1.18304 28.9831C1.18304 28.491 1.16766 27.9989 1.1369 27.5069C1.10615 27.0148 1.0754 26.5227 1.04464 26.0307C0.983135 25.1388 0.921627 24.2316 0.860119 23.309C0.829365 22.3863 0.813988 21.4637 0.813988 20.5411C0.813988 19.7722 0.844742 19.0188 0.90625 18.2807C0.998512 17.5426 1.04464 16.7891 1.04464 16.0203C1.04464 15.4974 1.04464 14.99 1.04464 14.4979C1.0754 13.9751 1.09077 13.4523 1.09077 12.9295C1.09077 12.4989 1.0754 12.0838 1.04464 11.684C1.04464 11.2534 1.04464 10.8382 1.04464 10.4384C1.04464 9.97711 1.0754 9.53118 1.1369 9.10062C1.19841 8.63931 1.22917 8.19338 1.22917 7.76282C1.22917 7.24001 1.19841 6.73257 1.1369 6.2405C1.0754 5.71769 1.04464 5.19487 1.04464 4.67205C1.04464 4.51828 1.06002 4.37989 1.09077 4.25687C1.12153 4.1031 1.1369 3.94933 1.1369 3.79556C1.10615 3.45727 1.12153 3.25737 1.18304 3.19586C1.24454 3.1036 1.30605 2.99596 1.36756 2.87294C1.52133 2.84219 1.69048 2.79606 1.875 2.73455C2.05952 2.67304 2.22867 2.67304 2.38244 2.73455C2.56696 2.55003 2.813 2.45776 3.12054 2.45776C3.45883 2.45776 3.70486 2.35013 3.85863 2.13485C4.07391 2.1656 4.2123 2.18098 4.27381 2.18098C4.36607 2.15022 4.44296 2.13485 4.50446 2.13485C4.78125 2.19636 4.91964 2.19636 4.91964 2.13485C4.9504 2.04259 5.01191 1.99645 5.10417 1.99645C5.25794 1.99645 5.48859 2.01183 5.79613 2.04259C6.13443 2.04259 6.36508 2.10409 6.4881 2.22711C6.79564 3.85707 6.96478 5.51778 6.99554 7.20925C7.02629 8.90072 7.04167 10.5768 7.04167 12.2375C7.04167 12.6681 7.05704 13.114 7.0878 13.5753C7.11855 14.0059 7.10318 14.4364 7.04167 14.867C7.04167 15.0515 7.02629 15.236 6.99554 15.4206C6.96478 15.5743 6.94941 15.7435 6.94941 15.928C6.94941 16.4508 6.91865 17.0044 6.85714 17.5887C6.79564 18.1423 6.76488 18.6805 6.76488 19.2033C7.13393 19.4186 7.44147 19.4955 7.6875 19.434C7.96429 19.3417 8.2257 19.2494 8.47173 19.1572C8.77927 19.0649 9.05605 18.9726 9.30208 18.8804C9.57887 18.7574 9.85566 18.6497 10.1324 18.5575C10.3785 18.4345 10.6399 18.3422 10.9167 18.2807C11.2242 18.1884 11.501 18.1115 11.747 18.05C12.5466 17.7732 13.3309 17.4349 14.0997 17.0351C14.8686 16.6353 15.6528 16.3124 16.4524 16.0664C16.3909 14.3749 16.3601 12.6988 16.3601 11.0381C16.3601 9.34665 16.3601 7.67056 16.3601 6.00985C16.3601 5.54854 16.3601 5.07185 16.3601 4.57979C16.3601 4.08772 16.3909 3.61104 16.4524 3.14973C16.4831 3.02671 16.5139 2.93445 16.5446 2.87294C16.6062 2.78068 16.6369 2.65767 16.6369 2.5039C16.7292 2.35013 16.8368 2.24249 16.9598 2.18098C17.0828 2.11947 17.1751 2.02721 17.2366 1.90419C17.2981 1.9657 17.3596 2.02721 17.4211 2.08872C17.5134 2.11947 17.6057 2.15022 17.6979 2.18098C17.9439 2.11947 18.0823 2.07334 18.1131 2.04259C18.1746 2.01183 18.2361 1.98108 18.2976 1.95032C18.4514 1.88882 18.6513 1.85806 18.8973 1.85806C19.1434 1.85806 19.3433 1.85806 19.497 1.85806H20.0506L20.5119 1.99645ZM42.3318 30.8283C42.2703 31.0128 42.2396 31.182 42.2396 31.3357C42.2396 31.5203 42.255 31.7048 42.2857 31.8893C42.3472 32.0738 42.378 32.2584 42.378 32.4429C42.3165 32.9965 42.2703 33.3348 42.2396 33.4578C42.0551 33.6115 41.6706 33.7961 41.0863 34.0113C40.5327 34.1959 39.8562 34.3958 39.0565 34.611C38.2877 34.7956 37.442 34.9955 36.5193 35.2107C35.6275 35.3953 34.7664 35.5798 33.936 35.7643C33.1057 35.9488 32.3368 36.1026 31.6295 36.2256C30.9529 36.3794 30.4454 36.487 30.1071 36.5485C29.9534 36.5793 29.7996 36.61 29.6458 36.6408C29.5228 36.7023 29.3844 36.7638 29.2307 36.8253C29.0769 36.8561 28.9231 36.8561 28.7693 36.8253C28.6156 36.8253 28.4618 36.8561 28.308 36.9176C28.2158 36.9176 28.1235 36.8715 28.0313 36.7792C27.9697 36.6869 27.9082 36.61 27.8467 36.5485C27.8467 36.364 27.816 36.2256 27.7545 36.1334C27.693 36.0411 27.6161 35.9642 27.5238 35.9027C27.4623 35.8412 27.4008 35.7797 27.3393 35.7182C27.2778 35.6259 27.247 35.4875 27.247 35.303C27.1855 35.057 27.0933 34.8724 26.9702 34.7494C26.878 34.5957 26.8318 34.4573 26.8318 34.3343C26.7088 33.9345 26.6473 33.5808 26.6473 33.2732C26.6473 33.1195 26.6627 32.9965 26.6935 32.9042C26.7242 32.8119 26.7703 32.7197 26.8318 32.6274C27.0164 32.5659 27.1548 32.489 27.247 32.3968C27.3393 32.3045 27.4623 32.2276 27.6161 32.1661C27.8006 32.0738 28.062 31.997 28.4003 31.9354C28.7386 31.8432 29.1076 31.7509 29.5074 31.6587C29.9072 31.5664 30.2917 31.4741 30.6607 31.3819C31.0298 31.2896 31.3373 31.1973 31.5833 31.1051C31.6756 31.0743 31.7679 31.059 31.8601 31.059C31.9524 31.059 32.0293 31.0282 32.0908 30.9667C32.0293 30.4746 31.9831 29.9826 31.9524 29.4905C31.9524 28.9984 31.9216 28.5218 31.8601 28.0604C31.8601 27.8452 31.8447 27.6299 31.814 27.4146C31.7832 27.1993 31.7679 26.9994 31.7679 26.8149L31.814 25.8462C31.814 24.6775 31.7679 23.5089 31.6756 22.3402C31.5833 21.1716 31.5372 20.0029 31.5372 18.8343V17.2658C31.5372 17.0198 31.5218 16.7891 31.4911 16.5738C31.4911 16.3586 31.4911 16.1279 31.4911 15.8819C31.4911 15.2975 31.4911 14.744 31.4911 14.2212C31.5218 13.6676 31.5372 13.0986 31.5372 12.5143V8.27026C30.8606 8.1165 30.2302 8.13187 29.6458 8.3164C29.0615 8.47017 28.4618 8.5778 27.8467 8.63931C27.6314 8.42403 27.5084 8.19338 27.4777 7.94735C27.2316 7.60905 27.0625 7.39378 26.9702 7.30151C26.878 7.20925 26.7703 6.94784 26.6473 6.51729C26.432 6.08673 26.2475 5.82532 26.0938 5.73306C25.9707 5.61005 25.9092 5.42552 25.9092 5.17949C25.9092 5.02572 25.94 4.91808 26.0015 4.85657C26.0938 4.79507 26.1706 4.68743 26.2321 4.53366C26.5089 4.41064 26.6627 4.33376 26.6935 4.303C26.755 4.24149 26.8165 4.19536 26.878 4.16461C27.1855 3.94933 27.5392 3.79556 27.939 3.7033C28.3388 3.61104 28.7232 3.5034 29.0923 3.38038C29.3998 3.28812 29.692 3.18048 29.9688 3.05747C30.2455 2.93445 30.5531 2.82681 30.8914 2.73455C31.2912 2.61153 31.691 2.48852 32.0908 2.3655C32.4906 2.24249 32.875 2.13485 33.244 2.04259C33.4901 1.98108 33.7207 1.9657 33.936 1.99645C34.182 1.99645 34.4281 1.91957 34.6741 1.7658C35.0739 1.82731 35.4891 1.82731 35.9196 1.7658C36.381 1.67354 36.873 1.5659 37.3958 1.44288C37.9187 1.31987 38.4261 1.21223 38.9182 1.11997C39.4102 1.0277 39.7793 0.95082 40.0253 0.889312C40.1791 0.95082 40.2867 1.0277 40.3482 1.11997C40.4097 1.21223 40.502 1.27374 40.625 1.30449C40.6558 1.39675 40.6865 1.51977 40.7173 1.67354C40.748 1.79655 40.8095 1.88882 40.9018 1.95032C40.9018 2.28862 40.9787 2.53465 41.1324 2.68842C41.1017 2.99596 41.1478 3.34963 41.2708 3.74943C41.4246 4.11848 41.5015 4.47215 41.5015 4.81044C41.3477 5.27175 41.0863 5.56392 40.7173 5.68693C40.379 5.80995 39.9945 5.91759 39.564 6.00985C39.1642 6.10211 38.7644 6.19437 38.3646 6.28663C37.9648 6.34814 37.6419 6.42503 37.3958 6.51729C37.3958 6.94784 37.3958 7.39378 37.3958 7.85509C37.4266 8.3164 37.442 8.77771 37.442 9.23901C37.442 9.66957 37.4266 10.1001 37.3958 10.5307C37.3958 10.9612 37.3958 11.3918 37.3958 11.8223C37.3958 12.4682 37.3805 13.1294 37.3497 13.806C37.3497 14.4826 37.3497 15.1592 37.3497 15.8357C37.3497 16.7891 37.3651 17.7425 37.3958 18.6959C37.4266 19.6492 37.4727 20.6026 37.5342 21.556C37.565 21.7097 37.5804 21.9404 37.5804 22.2479C37.5804 23.4781 37.5957 24.6929 37.6265 25.8923C37.688 27.0609 37.7803 28.2757 37.9033 29.5366C38.3031 29.5674 38.6106 29.5059 38.8259 29.3521C38.9797 29.3521 39.1181 29.3214 39.2411 29.2598C39.3948 29.1983 39.5332 29.1368 39.6563 29.0753C39.8408 29.0446 40.0868 28.9984 40.3943 28.9369C40.7326 28.8447 40.9479 28.7985 41.0402 28.7985C41.317 28.8293 41.4861 28.8293 41.5476 28.7985C41.6399 28.9831 41.7783 29.1215 41.9628 29.2137C42.0243 29.4905 42.0704 29.7673 42.1012 30.0441C42.1627 30.2901 42.2396 30.5515 42.3318 30.8283ZM70.7946 18.4652C70.8562 18.6805 70.9792 18.9111 71.1637 19.1572C71.3482 19.4032 71.4405 19.5877 71.4405 19.7107C71.1944 20.2951 71.0099 20.7564 70.8869 21.0947C70.7639 21.4022 70.564 21.679 70.2872 21.925C70.2872 22.0173 70.1949 22.2172 70.0104 22.5247C69.8259 22.8323 69.6106 23.1706 69.3646 23.5396C69.1493 23.8779 68.9187 24.2162 68.6726 24.5545C68.4573 24.862 68.319 25.0773 68.2574 25.2003C68.1037 25.4464 67.9807 25.6924 67.8884 25.9384C67.7961 26.1537 67.6885 26.369 67.5655 26.5843C67.2887 27.0763 66.9965 27.5376 66.689 27.9682C66.4122 28.3987 66.1508 28.8754 65.9048 29.3982C65.751 29.552 65.6126 29.7212 65.4896 29.9057C65.3666 30.0902 65.2282 30.2594 65.0744 30.4131C64.7054 31.0897 64.2748 31.7202 63.7827 32.3045C63.3214 32.8888 62.8909 33.5347 62.4911 34.242C62.8294 34.5803 62.9985 35.0108 62.9985 35.5337C62.9985 35.8104 62.9216 35.9642 62.7679 35.995C62.6141 35.995 62.4757 36.0257 62.3527 36.0872C62.0451 36.3025 61.7684 36.4255 61.5223 36.4563C61.2763 36.487 61.0764 36.5024 60.9226 36.5024C60.5843 36.5024 60.2153 36.487 59.8155 36.4563C59.4157 36.4563 59.0774 36.487 58.8006 36.5485C58.7083 36.5793 58.6007 36.6254 58.4777 36.6869C58.3547 36.7792 58.2624 36.8253 58.2009 36.8253C57.9549 36.8253 57.7703 36.7792 57.6473 36.6869C57.5551 36.6254 57.4167 36.5639 57.2321 36.5024C56.9861 36.2256 56.7555 35.9335 56.5402 35.6259C56.3557 35.3184 56.1558 35.0108 55.9405 34.7033C55.756 34.488 55.5561 34.3035 55.3408 34.1497C55.1255 33.9652 54.9256 33.7499 54.7411 33.5039C54.249 32.7966 53.7416 32.12 53.2188 31.4741C52.7267 30.8283 52.2192 30.1825 51.6964 29.5366C51.4504 29.1983 51.1736 28.8754 50.8661 28.5679C50.5893 28.2603 50.3279 27.9528 50.0818 27.6453C49.8358 27.307 49.6052 26.9533 49.3899 26.5843C49.1746 26.2152 48.944 25.8615 48.6979 25.5232C48.5134 25.2157 48.252 24.8467 47.9137 24.4161C47.5754 23.9548 47.2217 23.4935 46.8527 23.0322C46.4836 22.5709 46.0992 22.1403 45.6994 21.7405C45.3304 21.3099 45.0074 20.987 44.7307 20.7718C44.7307 20.5565 44.6691 20.4027 44.5461 20.3104C44.4231 20.2182 44.2847 20.1105 44.131 19.9875C44.0694 19.8338 43.9926 19.6954 43.9003 19.5723C43.808 19.4186 43.7619 19.2494 43.7619 19.0649C43.7619 18.8496 43.808 18.6497 43.9003 18.4652C43.9618 18.3422 43.9926 18.2346 43.9926 18.1423C44.0233 18.0193 44.0694 17.8963 44.131 17.7732C44.2847 17.3734 44.5 17.0198 44.7768 16.7122C45.0843 16.4047 45.315 16.051 45.4688 15.6512C45.4995 15.5282 45.5149 15.4206 45.5149 15.3283C45.5149 15.2053 45.5456 15.0823 45.6071 14.9593C45.6994 14.744 45.8378 14.5595 46.0223 14.4057C46.2068 14.2212 46.376 14.0213 46.5298 13.806C46.6835 13.5292 46.8373 13.2524 46.9911 12.9756C47.1448 12.6988 47.2986 12.4221 47.4524 12.1453C47.8829 11.4379 48.3596 10.7613 48.8824 10.1155C49.4053 9.43892 49.8973 8.77771 50.3586 8.13187C50.7892 7.51679 51.189 6.91709 51.558 6.33276C51.9271 5.71769 52.3269 5.10261 52.7574 4.48753C52.9727 4.17999 53.2188 3.84169 53.4955 3.47265C53.7723 3.07284 54.0491 2.68842 54.3259 2.31937C54.6334 1.95032 54.941 1.61203 55.2485 1.30449C55.5561 0.966197 55.8636 0.720165 56.1711 0.566395C56.694 0.504887 57.0322 0.597149 57.186 0.843181C57.3398 1.05846 57.5551 1.1661 57.8318 1.1661C58.2624 1.25836 58.5546 1.39675 58.7083 1.58128C58.8621 1.7658 59.0159 1.93495 59.1696 2.08872C59.5694 2.08872 59.9077 2.1656 60.1845 2.31937C60.4613 2.47314 60.7381 2.7038 61.0149 3.01134C60.8919 3.34963 60.7227 3.65717 60.5074 3.93396C60.3229 4.21074 60.1538 4.5029 60 4.81044C59.754 4.90271 59.5694 5.05647 59.4464 5.27175C59.3542 5.48703 59.2004 5.67155 58.9851 5.82532C58.6468 6.34814 58.3085 6.87096 57.9702 7.39378C57.6319 7.88584 57.2937 8.36253 56.9554 8.82384C56.8016 9.00836 56.6324 9.16213 56.4479 9.28515C56.2634 9.37741 56.0942 9.53118 55.9405 9.74646C55.879 9.83872 55.8328 9.94636 55.8021 10.0694C55.7713 10.1616 55.7252 10.2539 55.6637 10.3462C55.2946 10.9305 54.8795 11.4994 54.4182 12.053C53.9568 12.6066 53.557 13.1909 53.2188 13.806C53.065 14.0213 52.942 14.2519 52.8497 14.4979C52.7574 14.7132 52.6498 14.9285 52.5268 15.1438C52.4038 15.3591 52.2192 15.6358 51.9732 15.9741C51.7579 16.2817 51.5273 16.6046 51.2813 16.9429C51.066 17.2812 50.8661 17.6195 50.6815 17.9578C50.5278 18.2961 50.4509 18.5728 50.4509 18.7881C50.4816 18.9419 50.6815 19.2494 51.0506 19.7107C51.4196 20.1721 51.8348 20.6641 52.2961 21.1869C52.7574 21.7097 53.188 22.2172 53.5878 22.7093C54.0184 23.1706 54.2798 23.4473 54.372 23.5396C54.4335 23.6934 54.6642 24.0317 55.064 24.5545C55.4638 25.0466 55.9097 25.6001 56.4018 26.2152C56.9246 26.7995 57.432 27.3685 57.9241 27.9221C58.4162 28.4756 58.7545 28.8754 58.939 29.1215L59.308 29.7212C59.3695 29.6904 59.5233 29.4751 59.7693 29.0753C60.0461 28.6755 60.3229 28.2296 60.5997 27.7375C60.8765 27.2455 61.1225 26.7842 61.3378 26.3536C61.5838 25.923 61.7376 25.6463 61.7991 25.5232C61.8914 25.431 62.0451 25.1849 62.2604 24.7851C62.4757 24.3853 62.7064 23.9548 62.9524 23.4935C63.2292 23.0322 63.4598 22.6016 63.6443 22.2018C63.8596 21.802 63.9826 21.5406 64.0134 21.4176H63.4598C62.9678 21.4176 62.4757 21.4483 61.9836 21.5098C61.5223 21.5406 61.0456 21.6329 60.5536 21.7866C60.3383 21.7559 60.1538 21.6944 60 21.6021C59.8462 21.5098 59.6617 21.4176 59.4464 21.3253C59.3542 21.0178 59.308 20.8025 59.308 20.6795C59.3388 20.5565 59.3388 20.4642 59.308 20.4027C59.2773 20.2797 59.2312 20.1874 59.1696 20.1259C59.1389 20.0644 59.1235 19.9722 59.1235 19.8491C59.1235 19.6339 59.0928 19.4647 59.0313 19.3417C58.9697 19.1879 58.9082 19.0188 58.8467 18.8343C58.8467 18.7112 58.8467 18.5882 58.8467 18.4652C58.8775 18.3422 58.8621 18.2346 58.8006 18.1423C58.8621 17.5887 58.816 17.1889 58.6622 16.9429C58.6622 16.5123 58.7237 16.2355 58.8467 16.1125C58.9697 15.9895 59.062 15.805 59.1235 15.559C59.4003 15.6512 59.631 15.6358 59.8155 15.5128C60.0308 15.3591 60.246 15.2822 60.4613 15.2822C60.9534 15.2822 61.3532 15.2053 61.6607 15.0515C61.9375 15.0208 62.2143 15.0054 62.4911 15.0054C62.7986 15.0054 63.0908 14.9746 63.3676 14.9131C63.5213 14.8824 63.6443 14.8516 63.7366 14.8209C63.8596 14.7901 63.998 14.7594 64.1518 14.7286C64.3363 14.6978 64.5362 14.6825 64.7515 14.6825C64.9668 14.6825 65.1667 14.6825 65.3512 14.6825C65.8433 14.621 66.3353 14.5902 66.8274 14.5902C67.3194 14.5595 67.8115 14.5287 68.3036 14.4979C68.4573 14.5595 68.5957 14.6056 68.7188 14.6363C68.8725 14.6671 69.0109 14.7132 69.1339 14.7747C69.2262 14.8362 69.3031 14.9131 69.3646 15.0054C69.4261 15.0669 69.5337 15.113 69.6875 15.1438C69.8413 15.2975 69.9489 15.4513 70.0104 15.6051C69.9489 15.8819 69.9643 16.0818 70.0566 16.2048C69.9028 16.3586 69.8105 16.5738 69.7798 16.8506C69.7798 17.0967 69.7644 17.3273 69.7336 17.5426C69.9489 17.6041 70.1334 17.7732 70.2872 18.05C70.441 18.3268 70.5486 18.4652 70.6101 18.4652H70.7946ZM96.6741 17.8194C96.6126 17.9424 96.5511 18.0654 96.4896 18.1884C96.4281 18.2807 96.3819 18.3883 96.3512 18.5113C96.4742 18.6344 96.5819 18.7727 96.6741 18.9265C96.7971 19.0495 96.8586 19.1879 96.8586 19.3417C96.8586 19.4647 96.8279 19.5877 96.7664 19.7107C96.7356 19.803 96.7356 19.8953 96.7664 19.9875C96.6434 20.2028 96.505 20.4027 96.3512 20.5872C96.2282 20.7718 96.1359 20.9717 96.0744 21.1869C95.9514 21.3099 95.8438 21.433 95.7515 21.556C95.69 21.679 95.6285 21.802 95.567 21.925C95.4132 21.9865 95.3056 22.0942 95.2441 22.2479C95.2133 22.371 95.1364 22.4786 95.0134 22.5709C94.9826 22.6939 94.8289 22.986 94.5521 23.4473C94.2753 23.9087 93.9678 24.4007 93.6295 24.9235C93.2912 25.4464 92.9683 25.9538 92.6607 26.4459C92.3532 26.9379 92.1379 27.2608 92.0149 27.4146C91.9534 27.5684 91.8765 27.6914 91.7842 27.7837C91.7227 27.8759 91.6458 27.9836 91.5536 28.1066C91.4921 28.1988 91.4459 28.3065 91.4152 28.4295C91.3844 28.5218 91.3383 28.5986 91.2768 28.6601C91.2153 28.7832 91.1384 28.8908 91.0461 28.9831C90.9846 29.0753 90.9231 29.1983 90.8616 29.3521C90.5541 29.7519 90.2465 30.2286 89.939 30.7822C89.6315 31.3357 89.3393 31.8278 89.0625 32.2584C88.9087 32.5044 88.755 32.7504 88.6012 32.9965C88.4782 33.2425 88.3398 33.4885 88.186 33.7346C88.0322 33.9806 87.8785 34.2112 87.7247 34.4265C87.5709 34.6418 87.4172 34.8724 87.2634 35.1185C87.0174 35.303 86.8021 35.5337 86.6176 35.8104C86.433 36.0565 86.2178 36.2718 85.9717 36.4563C85.5719 36.4563 85.3259 36.2718 85.2336 35.9027C84.8338 35.8104 84.6339 35.8104 84.6339 35.9027C84.6339 35.995 84.6339 36.0719 84.6339 36.1334C84.5109 36.1949 84.4187 36.2871 84.3571 36.4101C84.3264 36.5332 84.2495 36.6254 84.1265 36.6869C83.8805 36.6254 83.6652 36.5178 83.4807 36.364C83.3269 36.241 83.0962 36.1949 82.7887 36.2256C82.6657 36.0411 82.5273 35.8873 82.3735 35.7643C82.2197 35.6105 82.0814 35.4568 81.9583 35.303C81.8968 35.1185 81.8046 34.9647 81.6816 34.8417C81.5893 34.7187 81.497 34.5957 81.4048 34.4726C81.3125 34.3189 81.2202 34.1805 81.128 34.0575C81.0357 33.9345 80.9435 33.8114 80.8512 33.6884C80.6359 33.4116 80.4206 33.1502 80.2054 32.9042C80.0208 32.6274 79.8517 32.3506 79.6979 32.0738C79.4519 31.7048 79.2059 31.3357 78.9598 30.9667C78.7445 30.5669 78.5139 30.1825 78.2679 29.8134C78.1448 29.6289 78.0218 29.4444 77.8988 29.2598C77.7758 29.0753 77.6682 28.8908 77.5759 28.7063C77.5144 28.5525 77.4221 28.368 77.2991 28.1527C77.2068 27.9374 77.0838 27.799 76.9301 27.7375C76.8686 27.4915 76.7609 27.307 76.6071 27.184C76.4534 27.0609 76.2996 26.9072 76.1458 26.7226C75.9306 26.4766 75.7307 26.2152 75.5461 25.9384C75.3616 25.6309 75.1771 25.3233 74.9926 25.0158C74.3775 24.1547 73.7932 23.309 73.2396 22.4786C72.7168 21.6482 72.194 20.7871 71.6711 19.8953C71.8249 19.4032 71.9018 19.0342 71.9018 18.7881C71.9018 18.5421 71.9787 18.3422 72.1324 18.1884C72.1324 18.0654 72.1632 17.8809 72.2247 17.6348C72.6245 16.9583 73.0089 16.3432 73.378 15.7896C73.7163 15.2668 73.9469 14.8362 74.0699 14.4979C74.2237 14.1597 74.3775 13.806 74.5313 13.4369C74.685 13.3447 74.808 13.237 74.9003 13.114C74.9926 12.9602 75.1156 12.8219 75.2693 12.6988C75.3309 12.3605 75.4693 12.0838 75.6845 11.8685C75.8998 11.6224 76.0382 11.3303 76.0997 10.992C76.3765 10.7767 76.5303 10.5307 76.561 10.2539C76.9608 9.97711 77.2068 9.60806 77.2991 9.14675C77.5451 8.90072 77.745 8.62394 77.8988 8.3164C78.0833 8.00886 78.2525 7.68594 78.4063 7.34765C78.7753 7.04011 79.0675 6.6403 79.2827 6.14824C79.4673 6.02523 79.6057 5.85608 79.6979 5.6408C79.7902 5.42552 79.9132 5.241 80.067 5.08723C80.313 4.68743 80.4975 4.36451 80.6205 4.11848C80.7743 3.84169 80.9281 3.56491 81.0818 3.28812C81.2971 3.28812 81.4355 3.21124 81.497 3.05747C81.5585 2.9037 81.6816 2.84219 81.8661 2.87294C81.8661 2.59616 81.943 2.35013 82.0967 2.13485C82.1582 2.10409 82.2505 2.07334 82.3735 2.04259C82.4965 1.98108 82.558 1.91957 82.558 1.85806C82.4965 1.48901 82.5119 1.27374 82.6042 1.21223C82.6964 1.15072 82.7733 1.08921 82.8348 1.0277C83.1731 1.08921 83.4038 1.13534 83.5268 1.1661C83.6498 1.19685 83.8497 1.30449 84.1265 1.48901C84.434 1.48901 84.6493 1.55052 84.7723 1.67354C84.8953 1.79655 85.0337 1.88882 85.1875 1.95032C85.3105 2.07334 85.4028 2.19636 85.4643 2.31937C85.5566 2.44239 85.6796 2.53465 85.8333 2.59616C86.0794 2.93445 86.3408 3.3035 86.6176 3.7033C86.8944 4.1031 87.1558 4.47215 87.4018 4.81044C87.7401 5.27175 88.0784 5.71769 88.4167 6.14824C88.7857 6.54804 89.124 6.99398 89.4316 7.48604C89.5238 7.63981 89.693 7.91659 89.939 8.3164C90.185 8.68544 90.4618 9.08525 90.7694 9.5158C91.0769 9.94636 91.3537 10.3462 91.5997 10.7152C91.8457 11.0535 92.0149 11.2534 92.1071 11.3149C92.1994 11.4687 92.3993 11.7608 92.7069 12.1914C93.0144 12.622 93.3373 13.0833 93.6756 13.5753C94.0446 14.0366 94.3983 14.4826 94.7366 14.9131C95.0749 15.3437 95.3056 15.6205 95.4286 15.7435C95.7669 16.2048 96.0129 16.5892 96.1667 16.8968C96.3512 17.1735 96.5203 17.4811 96.6741 17.8194ZM86.1101 26.492C86.4484 26.0307 86.7098 25.6155 86.8944 25.2465C87.0789 24.8774 87.2634 24.5084 87.4479 24.1393C87.7555 23.7703 87.94 23.5089 88.0015 23.3551C88.063 23.2013 88.1399 23.0475 88.2321 22.8938C88.4782 22.5247 88.7242 22.1557 88.9702 21.7866C89.247 21.4176 89.4623 21.0178 89.6161 20.5872C89.8006 20.4642 89.939 20.3104 90.0313 20.1259C90.1235 19.9414 90.2619 19.7722 90.4464 19.6185C90.2619 18.9726 90.0466 18.4806 89.8006 18.1423C89.5546 17.7732 89.3085 17.4196 89.0625 17.0813C88.9702 16.9275 88.878 16.7737 88.7857 16.62C88.6935 16.4662 88.6012 16.3124 88.5089 16.1587C88.3859 16.0664 88.2783 15.9741 88.186 15.8819C88.1245 15.7896 88.0476 15.6973 87.9554 15.6051C87.8939 15.4513 87.8016 15.2514 87.6786 15.0054C87.5556 14.8516 87.4325 14.7132 87.3095 14.5902C87.1865 14.4672 87.0789 14.3134 86.9866 14.1289C86.8636 14.0059 86.7098 13.8367 86.5253 13.6215C86.3408 13.4062 86.1409 13.1755 85.9256 12.9295C85.7411 12.6527 85.5719 12.4067 85.4182 12.1914C85.2644 11.9454 85.1414 11.7455 85.0491 11.5917C84.9876 11.4379 84.9261 11.3149 84.8646 11.2226C84.8338 11.0996 84.7877 10.9766 84.7262 10.8536C84.5724 10.6383 84.4187 10.4538 84.2649 10.3C84.1111 10.1155 83.9573 9.9156 83.8036 9.70032C83.7113 9.76183 83.6191 9.80796 83.5268 9.83872C83.4653 9.83872 83.4038 9.86947 83.3423 9.93098C83.127 10.3308 82.881 10.6998 82.6042 11.0381C82.3581 11.3764 82.1121 11.7455 81.8661 12.1453C81.6508 12.5143 81.4355 12.8987 81.2202 13.2985C81.005 13.6676 80.7897 14.0366 80.5744 14.4057C80.4206 14.621 80.2669 14.8362 80.1131 15.0515C79.9901 15.236 79.8517 15.4513 79.6979 15.6973C79.5442 15.9126 79.4058 16.1433 79.2827 16.3893C79.1905 16.6046 79.0675 16.8199 78.9137 17.0351C78.6677 17.3427 78.4678 17.6195 78.314 17.8655C78.1602 18.1115 78.0065 18.4037 77.8527 18.742C77.9449 18.9265 78.0833 19.1879 78.2679 19.5262C78.4831 19.8338 78.6984 20.1567 78.9137 20.495C79.129 20.8025 79.3135 21.0947 79.4673 21.3715C79.6518 21.6482 79.7594 21.8328 79.7902 21.925C80.0362 22.1403 80.2361 22.3863 80.3899 22.6631C80.5437 22.9092 80.7436 23.1552 80.9896 23.4012C81.1126 23.6472 81.251 23.8625 81.4048 24.0471C81.5585 24.2316 81.7123 24.4315 81.8661 24.6468C82.0198 24.862 82.2197 25.1849 82.4658 25.6155C82.7118 26.0153 82.9578 26.4305 83.2039 26.861C83.4499 27.2916 83.6959 27.6914 83.942 28.0604C84.188 28.4295 84.3879 28.6601 84.5417 28.7524C84.8492 28.4141 85.0952 28.0451 85.2798 27.6453C85.495 27.2147 85.7718 26.8303 86.1101 26.492ZM119.878 13.8982C119.601 14.4826 119.217 15.0361 118.725 15.559C118.263 16.0818 117.817 16.5738 117.387 17.0351C117.049 17.3734 116.756 17.7425 116.51 18.1423C116.264 18.5421 115.988 18.9111 115.68 19.2494C115.434 19.5262 115.188 19.7876 114.942 20.0337C114.696 20.2489 114.465 20.495 114.25 20.7718C114.096 20.8948 113.942 21.0178 113.789 21.1408C113.666 21.2638 113.543 21.4176 113.42 21.6021C113.881 22.5862 114.419 23.4781 115.034 24.2777C115.68 25.0773 116.341 25.8769 117.018 26.6765C117.356 27.0763 117.694 27.4607 118.033 27.8298C118.371 28.1681 118.663 28.5371 118.909 28.9369C119.125 29.3982 119.34 29.7519 119.555 29.9979C119.801 30.2132 120.016 30.4439 120.201 30.6899C120.385 30.9974 120.539 31.2742 120.662 31.5203C120.816 31.7355 121.016 31.9508 121.262 32.1661C121.262 32.3199 121.354 32.4736 121.539 32.6274C121.723 32.7504 121.846 32.8888 121.908 33.0426C121.908 33.1964 121.908 33.3194 121.908 33.4116C121.938 33.5039 121.954 33.5808 121.954 33.6423C121.862 33.8883 121.692 34.1036 121.446 34.2881C121.231 34.4419 121.031 34.611 120.847 34.7956C120.539 34.7956 120.278 34.8878 120.063 35.0723C119.847 35.2569 119.555 35.3491 119.186 35.3491C119.032 35.4722 118.909 35.6105 118.817 35.7643C118.725 35.8873 118.602 36.0103 118.448 36.1334C118.202 36.1334 117.971 36.1949 117.756 36.3179C117.571 36.4717 117.356 36.5793 117.11 36.6408C116.803 36.4563 116.557 36.2256 116.372 35.9488C116.188 35.6413 115.941 35.4106 115.634 35.2569C115.603 35.1031 115.542 34.9801 115.449 34.8878C115.388 34.7648 115.326 34.6418 115.265 34.5188C114.742 33.9345 114.25 33.3194 113.789 32.6735C113.327 32.0277 112.866 31.3819 112.405 30.736C112.159 30.4593 111.897 30.1978 111.621 29.9518C111.375 29.675 111.128 29.3829 110.882 29.0753C110.729 28.8908 110.575 28.6755 110.421 28.4295C110.267 28.1835 110.098 27.9528 109.914 27.7375C109.698 27.553 109.514 27.3377 109.36 27.0917C109.206 26.8457 109.022 26.6458 108.807 26.492C108.53 26.6458 108.284 26.8457 108.068 27.0917C107.853 27.3377 107.607 27.553 107.33 27.7375C107.084 27.9528 106.838 28.1681 106.592 28.3834C106.377 28.5986 106.146 28.7985 105.9 28.9831C105.839 29.6904 105.808 30.3824 105.808 31.059C105.808 31.7048 105.808 32.3506 105.808 32.9965C105.808 33.5193 105.793 34.0267 105.762 34.5188C105.762 34.9801 105.7 35.4568 105.577 35.9488C105.424 35.9796 105.27 35.9027 105.116 35.7182C104.993 35.5029 104.855 35.3799 104.701 35.3491C104.578 35.3799 104.47 35.4414 104.378 35.5337C104.316 35.6259 104.209 35.6413 104.055 35.5798C103.901 35.7336 103.671 35.872 103.363 35.995C103.209 35.995 103.04 36.0257 102.856 36.0872C102.671 36.118 102.502 36.1334 102.348 36.1334C102.102 36.1334 101.933 36.1026 101.841 36.0411C101.533 36.2564 101.272 36.364 101.057 36.364C100.872 36.3948 100.718 36.4101 100.595 36.4101C100.534 36.1949 100.472 35.995 100.411 35.8104C100.349 35.5952 100.303 35.3645 100.272 35.1185C100.18 34.9955 100.103 34.8571 100.042 34.7033C100.011 34.5495 99.9648 34.3958 99.9033 34.242C99.934 34.1497 99.9494 34.0421 99.9494 33.9191C99.9494 33.7961 99.9494 33.673 99.9494 33.55C99.9494 33.0272 99.934 32.5198 99.9033 32.0277C99.8725 31.5356 99.8879 31.0282 99.9494 30.5054C99.8879 30.3516 99.8418 30.1978 99.811 30.0441C99.7803 29.8903 99.7649 29.7365 99.7649 29.5828C99.7649 29.4905 99.7649 29.3829 99.7649 29.2598C99.7956 29.1368 99.8418 29.0446 99.9033 28.9831C99.811 28.5833 99.7495 28.1681 99.7188 27.7375C99.7188 27.2762 99.7188 26.8457 99.7188 26.4459C99.7188 26.2306 99.7341 26.0153 99.7649 25.8C99.8264 25.554 99.8571 25.308 99.8571 25.0619C99.8571 24.5391 99.8264 24.0317 99.7649 23.5396C99.7034 23.0475 99.6726 22.5555 99.6726 22.0634C99.7034 21.7251 99.7188 21.4637 99.7188 21.2792C99.7188 21.0947 99.7341 20.9101 99.7649 20.7256C99.7956 20.5411 99.7803 20.3566 99.7188 20.1721C99.7495 20.0183 99.7803 19.9106 99.811 19.8491C99.8725 19.7569 99.9033 19.6339 99.9033 19.4801C99.9033 19.0803 99.9033 18.6959 99.9033 18.3268C99.934 17.927 99.9494 17.5118 99.9494 17.0813C99.9494 16.7737 99.9494 16.4816 99.9494 16.2048C99.9802 15.8972 99.9955 15.5743 99.9955 15.236C99.9955 14.9593 100.011 14.6978 100.042 14.4518C100.103 14.2058 100.149 13.9597 100.18 13.7137C100.211 13.4369 100.226 13.1755 100.226 12.9295C100.226 12.6527 100.226 12.3913 100.226 12.1453C100.226 11.4994 100.226 10.8536 100.226 10.2078C100.226 9.53118 100.195 8.86997 100.134 8.22413C100.103 8.07036 100.072 7.90122 100.042 7.71669C100.011 7.53217 99.9955 7.34765 99.9955 7.16312C99.934 6.5788 99.8879 5.97909 99.8571 5.36401C99.8264 4.74894 99.7649 4.13386 99.6726 3.51878C99.7341 3.42651 99.7649 3.33425 99.7649 3.24199C99.7649 3.11897 99.7649 3.01134 99.7649 2.91907C99.7649 2.7653 99.7649 2.62691 99.7649 2.5039C99.7649 2.35013 99.7495 2.19636 99.7188 2.04259C99.7803 1.98108 99.8418 1.91957 99.9033 1.85806C99.9648 1.7658 100.026 1.68892 100.088 1.62741C100.272 1.62741 100.457 1.64278 100.641 1.67354C100.857 1.67354 101.041 1.73505 101.195 1.85806C101.349 1.79655 101.518 1.73505 101.702 1.67354C101.918 1.58128 102.102 1.53515 102.256 1.53515C102.502 1.53515 102.687 1.59665 102.81 1.71967C102.963 1.65816 103.04 1.59665 103.04 1.53515C103.071 1.44288 103.194 1.39675 103.409 1.39675C103.809 1.366 104.086 1.35062 104.24 1.35062C104.424 1.35062 104.593 1.33524 104.747 1.30449C104.839 1.366 104.916 1.44288 104.978 1.53515C105.039 1.62741 105.101 1.71967 105.162 1.81193C105.839 2.05796 106.377 2.41163 106.777 2.87294C107.207 3.3035 107.684 3.67255 108.207 3.98009C108.33 4.07235 108.453 4.14923 108.576 4.21074C108.699 4.27225 108.822 4.33376 108.945 4.39526C109.222 4.57979 109.499 4.77969 109.775 4.99497C110.052 5.21024 110.344 5.39477 110.652 5.54854C110.959 5.70231 111.128 5.79457 111.159 5.82532C111.221 5.82532 111.267 5.85608 111.298 5.91759C111.974 6.16362 112.574 6.50191 113.097 6.93247C113.65 7.33227 114.235 7.70132 114.85 8.03961C115.065 8.16263 115.326 8.28564 115.634 8.40866C115.972 8.53167 116.295 8.67007 116.603 8.82384C116.941 8.94685 117.249 9.08525 117.525 9.23901C117.833 9.39278 118.063 9.56193 118.217 9.74646C118.556 10.0847 118.848 10.3308 119.094 10.4846C119.371 10.6076 119.632 10.7613 119.878 10.9459L119.924 12.1914C119.924 12.4067 119.893 12.6066 119.832 12.7911C119.801 12.9756 119.786 13.1755 119.786 13.3908C119.786 13.5446 119.816 13.7137 119.878 13.8982ZM113.558 12.6988C113.22 12.5143 112.881 12.3452 112.543 12.1914C112.205 12.0069 111.913 11.7608 111.667 11.4533C111.451 11.3918 111.067 11.2534 110.513 11.0381C109.96 10.7921 109.391 10.5461 108.807 10.3C108.253 10.0232 107.73 9.79259 107.238 9.60806C106.777 9.39278 106.515 9.28515 106.454 9.28515C106.362 9.3159 106.315 9.5158 106.315 9.88485C106.315 10.2539 106.315 10.6537 106.315 11.0843C106.315 11.5148 106.315 11.93 106.315 12.3298C106.315 12.7296 106.315 12.9756 106.315 13.0679C106.315 13.6522 106.3 14.2212 106.269 14.7747C106.239 15.3283 106.192 15.8972 106.131 16.4816C106.069 16.5738 106.023 16.6661 105.993 16.7584C105.962 16.8199 105.931 16.8968 105.9 16.989C105.839 17.4196 105.808 17.9885 105.808 18.6959C105.808 19.4032 105.808 19.9722 105.808 20.4027C105.808 20.618 105.808 20.8179 105.808 21.0024C105.808 21.1869 105.823 21.4022 105.854 21.6482C106.008 21.6482 106.116 21.6175 106.177 21.556C106.239 21.4637 106.346 21.3868 106.5 21.3253C106.9 20.8948 107.3 20.4796 107.699 20.0798C108.099 19.68 108.514 19.2648 108.945 18.8343C109.129 18.6497 109.314 18.4498 109.499 18.2346C109.683 18.0193 109.883 17.8347 110.098 17.681C110.252 17.4965 110.39 17.3273 110.513 17.1735C110.636 16.989 110.775 16.8199 110.929 16.6661C111.359 16.2048 111.805 15.7589 112.266 15.3283C112.728 14.867 113.112 14.3596 113.42 13.806C113.635 13.6522 113.835 13.4062 114.019 13.0679C113.804 13.0371 113.65 12.9141 113.558 12.6988Z" fill="#141414"/>
</svg>
